<svg width="192" height="24" viewBox="0 0 192 24" fill="none" xmlns="http://www.w3.org/2000/svg">
<path d="M3 3C1.57234 3 0.377595 3.99726 0.0743781 5.33316L12 12.621L23.9256 5.33316C23.6224 3.99725 22.4277 3 21 3H3Z" fill="black"/>
<path d="M0 17.7009V7.04563L8.70479 12.3652L0 17.7009Z" fill="black"/>
<path d="M10.1421 13.2436L0.287807 19.2838C0.768906 20.2984 1.80252 21 3 21H12.3841C12.1353 20.2962 12 19.5389 12 18.75C12 16.6754 12.9359 14.8194 14.4086 13.5811L13.8579 13.2436L12 14.379L10.1421 13.2436Z" fill="black"/>
<path d="M24 14.507V7.04563L15.2952 12.3652L15.8022 12.676C16.6929 12.2429 17.6931 12 18.75 12C20.8705 12 22.7625 12.9778 24 14.507Z" fill="black"/>
<path d="M23.7508 18.3663C23.7508 20.1174 22.8851 21.4029 21.3701 21.4029C20.6159 21.4029 19.8682 21.0618 19.6911 20.4322H19.6255C19.4485 21.0553 18.8123 21.3963 18.104 21.3963C16.9497 21.3963 16.2152 20.5831 16.2152 19.2452V18.4516C16.2152 17.1858 16.9366 16.3529 18.104 16.3529C18.9828 16.3529 19.4091 16.8513 19.5337 17.2973H19.5796V16.4447H20.9372V19.7305C20.9372 20.1371 21.2061 20.3601 21.5537 20.3601C22.0259 20.3601 22.5112 19.737 22.5112 18.2745V18.0974C22.5112 16.1824 21.0881 14.6084 18.7861 14.6084H18.727C16.3529 14.6084 14.7658 16.2086 14.7658 18.6943V18.9304C14.7658 21.7308 16.6218 22.9113 18.6221 22.9113H18.6877C19.4485 22.9113 20.0912 22.8064 20.4585 22.6424V23.7377C20.1305 23.8885 19.4944 24 18.6024 24H18.5369C15.6577 24 13.5 22.2292 13.5 18.9697V18.6483C13.5 15.5397 15.6315 13.5 18.727 13.5H18.7795C21.9603 13.5 23.7508 15.6446 23.7508 18.0515V18.3663ZM17.6908 18.6811V19.0222C17.6908 19.901 18.0319 20.2224 18.5631 20.2224C19.0287 20.2224 19.4091 19.9666 19.4091 19.1074V18.5565C19.4091 17.7826 18.9959 17.4941 18.55 17.4941C18.0319 17.4941 17.6908 17.8613 17.6908 18.6811Z" fill="black"/>
<path d="M32.7727 7.61364V6.36364H41.5V7.61364H37.8409V18H36.4318V7.61364H32.7727ZM45.8864 18.1818C45.0455 18.1818 44.3201 17.9962 43.7102 17.625C43.1042 17.25 42.6364 16.7273 42.3068 16.0568C41.9811 15.3826 41.8182 14.5985 41.8182 13.7045C41.8182 12.8106 41.9811 12.0227 42.3068 11.3409C42.6364 10.6553 43.0947 10.1212 43.6818 9.73864C44.2727 9.35227 44.9621 9.15909 45.75 9.15909C46.2045 9.15909 46.6534 9.23485 47.0966 9.38636C47.5398 9.53788 47.9432 9.78409 48.3068 10.125C48.6705 10.4621 48.9602 10.9091 49.1761 11.4659C49.392 12.0227 49.5 12.7083 49.5 13.5227V14.0909H42.7727V12.9318H48.1364C48.1364 12.4394 48.0379 12 47.8409 11.6136C47.6477 11.2273 47.3712 10.9223 47.0114 10.6989C46.6553 10.4754 46.2348 10.3636 45.75 10.3636C45.2159 10.3636 44.7538 10.4962 44.3636 10.7614C43.9773 11.0227 43.6799 11.3636 43.4716 11.7841C43.2633 12.2045 43.1591 12.6553 43.1591 13.1364V13.9091C43.1591 14.5682 43.2727 15.1269 43.5 15.5852C43.7311 16.0398 44.0511 16.3864 44.4602 16.625C44.8693 16.8598 45.3447 16.9773 45.8864 16.9773C46.2386 16.9773 46.5568 16.928 46.8409 16.8295C47.1288 16.7273 47.3769 16.5758 47.5852 16.375C47.7936 16.1705 47.9545 15.9167 48.0682 15.6136L49.3636 15.9773C49.2273 16.4167 48.9981 16.803 48.6761 17.1364C48.3542 17.4659 47.9564 17.7235 47.483 17.9091C47.0095 18.0909 46.4773 18.1818 45.8864 18.1818ZM51.5398 21.2727V9.27273H52.8352V10.6591H52.9943C53.0928 10.5076 53.2292 10.3144 53.4034 10.0795C53.5814 9.84091 53.8352 9.62879 54.1648 9.44318C54.4981 9.25379 54.9489 9.15909 55.517 9.15909C56.2519 9.15909 56.8996 9.3428 57.4602 9.71023C58.0208 10.0777 58.4583 10.5985 58.7727 11.2727C59.0871 11.947 59.2443 12.7424 59.2443 13.6591C59.2443 14.5833 59.0871 15.3845 58.7727 16.0625C58.4583 16.7367 58.0227 17.2595 57.4659 17.6307C56.9091 17.9981 56.267 18.1818 55.5398 18.1818C54.9792 18.1818 54.5303 18.089 54.1932 17.9034C53.8561 17.714 53.5966 17.5 53.4148 17.2614C53.233 17.0189 53.0928 16.8182 52.9943 16.6591H52.8807V21.2727H51.5398ZM52.858 13.6364C52.858 14.2955 52.9545 14.8769 53.1477 15.3807C53.3409 15.8807 53.6231 16.2727 53.9943 16.5568C54.3655 16.8371 54.8201 16.9773 55.358 16.9773C55.9186 16.9773 56.3864 16.8295 56.7614 16.5341C57.1402 16.2348 57.4242 15.8333 57.6136 15.3295C57.8068 14.822 57.9034 14.2576 57.9034 13.6364C57.9034 13.0227 57.8087 12.4697 57.6193 11.9773C57.4337 11.4811 57.1515 11.089 56.7727 10.8011C56.3977 10.5095 55.9261 10.3636 55.358 10.3636C54.8125 10.3636 54.3542 10.5019 53.983 10.7784C53.6117 11.0511 53.3314 11.4337 53.142 11.9261C52.9527 12.4148 52.858 12.9848 52.858 13.6364ZM62.6307 6.36364V18H61.2898V6.36364H62.6307ZM65.9503 21.2727C65.723 21.2727 65.5204 21.2538 65.3423 21.2159C65.1643 21.1818 65.0412 21.1477 64.973 21.1136L65.3139 19.9318C65.6397 20.0152 65.9276 20.0455 66.1776 20.0227C66.4276 20 66.6491 19.8883 66.8423 19.6875C67.0393 19.4905 67.2192 19.1705 67.3821 18.7273L67.6321 18.0455L64.4048 9.27273H65.8594L68.2685 16.2273H68.3594L70.7685 9.27273H72.223L68.5185 19.2727C68.3518 19.7235 68.1454 20.0966 67.8991 20.392C67.6529 20.6913 67.367 20.9129 67.0412 21.0568C66.7192 21.2008 66.3556 21.2727 65.9503 21.2727ZM73.9929 18V9.27273H75.3338V18H73.9929ZM74.6747 7.81818C74.4134 7.81818 74.188 7.72917 73.9986 7.55114C73.813 7.37311 73.7202 7.15909 73.7202 6.90909C73.7202 6.65909 73.813 6.44508 73.9986 6.26705C74.188 6.08902 74.4134 6 74.6747 6C74.9361 6 75.1596 6.08902 75.3452 6.26705C75.5346 6.44508 75.6293 6.65909 75.6293 6.90909C75.6293 7.15909 75.5346 7.37311 75.3452 7.55114C75.1596 7.72917 74.9361 7.81818 74.6747 7.81818ZM77.7898 21.2727V9.27273H79.0852V10.6591H79.2443C79.3428 10.5076 79.4792 10.3144 79.6534 10.0795C79.8314 9.84091 80.0852 9.62879 80.4148 9.44318C80.7481 9.25379 81.1989 9.15909 81.767 9.15909C82.5019 9.15909 83.1496 9.3428 83.7102 9.71023C84.2708 10.0777 84.7083 10.5985 85.0227 11.2727C85.3371 11.947 85.4943 12.7424 85.4943 13.6591C85.4943 14.5833 85.3371 15.3845 85.0227 16.0625C84.7083 16.7367 84.2727 17.2595 83.7159 17.6307C83.1591 17.9981 82.517 18.1818 81.7898 18.1818C81.2292 18.1818 80.7803 18.089 80.4432 17.9034C80.1061 17.714 79.8466 17.5 79.6648 17.2614C79.483 17.0189 79.3428 16.8182 79.2443 16.6591H79.1307V21.2727H77.7898ZM79.108 13.6364C79.108 14.2955 79.2045 14.8769 79.3977 15.3807C79.5909 15.8807 79.8731 16.2727 80.2443 16.5568C80.6155 16.8371 81.0701 16.9773 81.608 16.9773C82.1686 16.9773 82.6364 16.8295 83.0114 16.5341C83.3902 16.2348 83.6742 15.8333 83.8636 15.3295C84.0568 14.822 84.1534 14.2576 84.1534 13.6364C84.1534 13.0227 84.0587 12.4697 83.8693 11.9773C83.6837 11.4811 83.4015 11.089 83.0227 10.8011C82.6477 10.5095 82.1761 10.3636 81.608 10.3636C81.0625 10.3636 80.6042 10.5019 80.233 10.7784C79.8617 11.0511 79.5814 11.4337 79.392 11.9261C79.2027 12.4148 79.108 12.9848 79.108 13.6364ZM91.0852 18.1818C90.2973 18.1818 89.6061 17.9943 89.0114 17.6193C88.4205 17.2443 87.9583 16.7197 87.625 16.0455C87.2955 15.3712 87.1307 14.5833 87.1307 13.6818C87.1307 12.7727 87.2955 11.9792 87.625 11.3011C87.9583 10.6231 88.4205 10.0966 89.0114 9.72159C89.6061 9.34659 90.2973 9.15909 91.0852 9.15909C91.8731 9.15909 92.5625 9.34659 93.1534 9.72159C93.7481 10.0966 94.2102 10.6231 94.5398 11.3011C94.8731 11.9792 95.0398 12.7727 95.0398 13.6818C95.0398 14.5833 94.8731 15.3712 94.5398 16.0455C94.2102 16.7197 93.7481 17.2443 93.1534 17.6193C92.5625 17.9943 91.8731 18.1818 91.0852 18.1818ZM91.0852 16.9773C91.6837 16.9773 92.1761 16.8239 92.5625 16.517C92.9489 16.2102 93.2348 15.8068 93.4205 15.3068C93.6061 14.8068 93.6989 14.2652 93.6989 13.6818C93.6989 13.0985 93.6061 12.5549 93.4205 12.0511C93.2348 11.5473 92.9489 11.1402 92.5625 10.8295C92.1761 10.5189 91.6837 10.3636 91.0852 10.3636C90.4867 10.3636 89.9943 10.5189 89.608 10.8295C89.2216 11.1402 88.9356 11.5473 88.75 12.0511C88.5644 12.5549 88.4716 13.0985 88.4716 13.6818C88.4716 14.2652 88.5644 14.8068 88.75 15.3068C88.9356 15.8068 89.2216 16.2102 89.608 16.517C89.9943 16.8239 90.4867 16.9773 91.0852 16.9773ZM98.4276 6.36364V18H97.0866V6.36364H98.4276ZM107.588 21.0682C106.429 21.0682 105.404 20.9091 104.514 20.5909C103.624 20.2765 102.876 19.8125 102.27 19.1989C101.664 18.5852 101.205 17.8333 100.895 16.9432C100.584 16.053 100.429 15.0341 100.429 13.8864C100.429 12.7765 100.586 11.7841 100.901 10.9091C101.219 10.0341 101.679 9.29167 102.281 8.68182C102.887 8.06818 103.622 7.60038 104.486 7.27841C105.353 6.95644 106.334 6.79545 107.429 6.79545C108.493 6.79545 109.425 6.9697 110.224 7.31818C111.027 7.66288 111.698 8.13068 112.236 8.72159C112.777 9.30871 113.183 9.9697 113.452 10.7045C113.724 11.4394 113.861 12.197 113.861 12.9773C113.861 13.5265 113.834 14.0833 113.781 14.6477C113.728 15.2121 113.616 15.7311 113.446 16.2045C113.276 16.6742 113.012 17.053 112.656 17.3409C112.304 17.6288 111.827 17.7727 111.224 17.7727C110.959 17.7727 110.668 17.7311 110.349 17.6477C110.031 17.5644 109.749 17.4261 109.503 17.233C109.257 17.0398 109.111 16.7803 109.065 16.4545H108.997C108.906 16.6742 108.766 16.8826 108.577 17.0795C108.391 17.2765 108.147 17.4337 107.844 17.5511C107.545 17.6686 107.179 17.7197 106.747 17.7045C106.255 17.6856 105.821 17.5758 105.446 17.375C105.071 17.1705 104.757 16.8939 104.503 16.5455C104.253 16.1932 104.063 15.786 103.935 15.3239C103.81 14.858 103.747 14.3561 103.747 13.8182C103.747 13.3068 103.823 12.839 103.974 12.4148C104.126 11.9905 104.336 11.6193 104.605 11.3011C104.878 10.983 105.196 10.7292 105.56 10.5398C105.927 10.3466 106.323 10.2273 106.747 10.1818C107.126 10.1439 107.471 10.161 107.781 10.233C108.092 10.3011 108.348 10.4053 108.548 10.5455C108.749 10.6818 108.876 10.8333 108.929 11H108.997V10.3636H110.202V15.5C110.202 15.8182 110.291 16.0985 110.469 16.3409C110.647 16.5833 110.906 16.7045 111.247 16.7045C111.634 16.7045 111.929 16.572 112.134 16.3068C112.342 16.0417 112.484 15.6326 112.56 15.0795C112.639 14.5265 112.679 13.8182 112.679 12.9545C112.679 12.447 112.609 11.947 112.469 11.4545C112.332 10.9583 112.124 10.4943 111.844 10.0625C111.567 9.63068 111.217 9.25 110.793 8.92045C110.368 8.59091 109.87 8.33333 109.298 8.14773C108.73 7.95833 108.084 7.86364 107.361 7.86364C106.471 7.86364 105.673 8.00189 104.969 8.27841C104.268 8.55114 103.671 8.95076 103.179 9.47727C102.69 10 102.317 10.6364 102.06 11.3864C101.806 12.1326 101.679 12.9811 101.679 13.9318C101.679 14.8977 101.806 15.7557 102.06 16.5057C102.317 17.2557 102.696 17.8883 103.196 18.4034C103.7 18.9186 104.323 19.3087 105.065 19.5739C105.808 19.8428 106.664 19.9773 107.634 19.9773C108.05 19.9773 108.461 19.9375 108.866 19.858C109.272 19.7784 109.63 19.6913 109.94 19.5966C110.251 19.5019 110.474 19.4318 110.611 19.3864L110.929 20.4318C110.694 20.5303 110.387 20.6288 110.009 20.7273C109.634 20.8258 109.232 20.9072 108.804 20.9716C108.38 21.036 107.974 21.0682 107.588 21.0682ZM106.929 16.5455C107.437 16.5455 107.848 16.4432 108.162 16.2386C108.476 16.0341 108.705 15.7254 108.849 15.3125C108.993 14.8996 109.065 14.3788 109.065 13.75C109.065 13.1136 108.986 12.6174 108.827 12.2614C108.668 11.9053 108.433 11.6553 108.122 11.5114C107.812 11.3674 107.429 11.2955 106.974 11.2955C106.543 11.2955 106.173 11.4091 105.866 11.6364C105.563 11.8598 105.33 12.1591 105.168 12.5341C105.009 12.9053 104.929 13.3106 104.929 13.75C104.929 14.2348 104.993 14.6913 105.122 15.1193C105.251 15.5436 105.461 15.8883 105.753 16.1534C106.045 16.4148 106.437 16.5455 106.929 16.5455ZM119.391 21.4545C118.743 21.4545 118.186 21.3712 117.72 21.2045C117.254 21.0417 116.866 20.8258 116.555 20.5568C116.249 20.2917 116.004 20.0076 115.822 19.7045L116.891 18.9545C117.012 19.1136 117.165 19.2955 117.351 19.5C117.536 19.7083 117.79 19.8883 118.112 20.0398C118.438 20.1951 118.864 20.2727 119.391 20.2727C120.095 20.2727 120.677 20.1023 121.135 19.7614C121.593 19.4205 121.822 18.8864 121.822 18.1591V16.3864H121.709C121.61 16.5455 121.47 16.7424 121.288 16.9773C121.11 17.2083 120.853 17.4148 120.516 17.5966C120.182 17.7746 119.732 17.8636 119.163 17.8636C118.459 17.8636 117.826 17.697 117.266 17.3636C116.709 17.0303 116.268 16.5455 115.942 15.9091C115.62 15.2727 115.459 14.5 115.459 13.5909C115.459 12.697 115.616 11.9186 115.93 11.2557C116.245 10.589 116.682 10.0739 117.243 9.71023C117.804 9.3428 118.451 9.15909 119.186 9.15909C119.754 9.15909 120.205 9.25379 120.538 9.44318C120.875 9.62879 121.133 9.84091 121.311 10.0795C121.493 10.3144 121.633 10.5076 121.732 10.6591H121.868V9.27273H123.163V18.25C123.163 19 122.993 19.6098 122.652 20.0795C122.315 20.553 121.86 20.8996 121.288 21.1193C120.72 21.3428 120.088 21.4545 119.391 21.4545ZM119.345 16.6591C119.883 16.6591 120.338 16.536 120.709 16.2898C121.08 16.0436 121.362 15.6894 121.555 15.2273C121.749 14.7652 121.845 14.2121 121.845 13.5682C121.845 12.9394 121.75 12.3845 121.561 11.9034C121.372 11.4223 121.091 11.0455 120.72 10.7727C120.349 10.5 119.891 10.3636 119.345 10.3636C118.777 10.3636 118.304 10.5076 117.925 10.7955C117.55 11.0833 117.268 11.4697 117.078 11.9545C116.893 12.4394 116.8 12.9773 116.8 13.5682C116.8 14.1742 116.894 14.7102 117.084 15.1761C117.277 15.6383 117.561 16.0019 117.936 16.267C118.315 16.5284 118.785 16.6591 119.345 16.6591ZM125.618 18V9.27273H126.913V10.6364H127.027C127.209 10.1705 127.502 9.80871 127.908 9.55114C128.313 9.28977 128.8 9.15909 129.368 9.15909C129.944 9.15909 130.423 9.28977 130.805 9.55114C131.192 9.80871 131.493 10.1705 131.709 10.6364H131.8C132.023 10.1856 132.358 9.82765 132.805 9.5625C133.252 9.29356 133.788 9.15909 134.413 9.15909C135.194 9.15909 135.832 9.40341 136.328 9.89205C136.824 10.3769 137.072 11.1326 137.072 12.1591V18H135.732V12.1591C135.732 11.5152 135.555 11.0549 135.203 10.7784C134.851 10.5019 134.436 10.3636 133.959 10.3636C133.345 10.3636 132.87 10.5492 132.533 10.9205C132.196 11.2879 132.027 11.7538 132.027 12.3182V18H130.663V12.0227C130.663 11.5265 130.502 11.1269 130.18 10.8239C129.858 10.517 129.444 10.3636 128.936 10.3636C128.588 10.3636 128.262 10.4564 127.959 10.642C127.66 10.8277 127.417 11.0852 127.232 11.4148C127.05 11.7405 126.959 12.1174 126.959 12.5455V18H125.618ZM142.092 18.2045C141.539 18.2045 141.037 18.1004 140.587 17.892C140.136 17.6799 139.778 17.375 139.513 16.9773C139.248 16.5758 139.115 16.0909 139.115 15.5227C139.115 15.0227 139.214 14.6174 139.411 14.3068C139.607 13.9924 139.871 13.7462 140.2 13.5682C140.53 13.3902 140.893 13.2576 141.291 13.1705C141.693 13.0795 142.096 13.0076 142.501 12.9545C143.032 12.8864 143.462 12.8352 143.791 12.8011C144.125 12.7633 144.367 12.7008 144.518 12.6136C144.674 12.5265 144.751 12.375 144.751 12.1591V12.1136C144.751 11.553 144.598 11.1174 144.291 10.8068C143.988 10.4962 143.528 10.3409 142.911 10.3409C142.27 10.3409 141.768 10.4811 141.405 10.7614C141.041 11.0417 140.786 11.3409 140.638 11.6591L139.365 11.2045C139.592 10.6742 139.895 10.2614 140.274 9.96591C140.657 9.66667 141.073 9.45833 141.524 9.34091C141.979 9.2197 142.426 9.15909 142.865 9.15909C143.145 9.15909 143.467 9.19318 143.831 9.26136C144.198 9.32576 144.553 9.46023 144.893 9.66477C145.238 9.86932 145.524 10.178 145.751 10.5909C145.979 11.0038 146.092 11.5568 146.092 12.25V18H144.751V16.8182H144.683C144.592 17.0076 144.441 17.2102 144.229 17.4261C144.017 17.642 143.734 17.8258 143.382 17.9773C143.03 18.1288 142.6 18.2045 142.092 18.2045ZM142.297 17C142.827 17 143.274 16.8958 143.638 16.6875C144.005 16.4792 144.282 16.2102 144.467 15.8807C144.657 15.5511 144.751 15.2045 144.751 14.8409V13.6136C144.695 13.6818 144.57 13.7443 144.376 13.8011C144.187 13.8542 143.967 13.9015 143.717 13.9432C143.471 13.9811 143.231 14.0152 142.996 14.0455C142.765 14.072 142.577 14.0947 142.433 14.1136C142.085 14.1591 141.759 14.233 141.456 14.3352C141.157 14.4337 140.914 14.5833 140.729 14.7841C140.547 14.9811 140.456 15.25 140.456 15.5909C140.456 16.0568 140.628 16.4091 140.973 16.6477C141.321 16.8826 141.763 17 142.297 17ZM148.54 18V9.27273H149.881V18H148.54ZM149.222 7.81818C148.96 7.81818 148.735 7.72917 148.545 7.55114C148.36 7.37311 148.267 7.15909 148.267 6.90909C148.267 6.65909 148.36 6.44508 148.545 6.26705C148.735 6.08902 148.96 6 149.222 6C149.483 6 149.706 6.08902 149.892 6.26705C150.081 6.44508 150.176 6.65909 150.176 6.90909C150.176 7.15909 150.081 7.37311 149.892 7.55114C149.706 7.72917 149.483 7.81818 149.222 7.81818ZM153.678 6.36364V18H152.337V6.36364H153.678ZM157.111 18.0909C156.83 18.0909 156.59 17.9905 156.389 17.7898C156.188 17.589 156.088 17.3485 156.088 17.0682C156.088 16.7879 156.188 16.5473 156.389 16.3466C156.59 16.1458 156.83 16.0455 157.111 16.0455C157.391 16.0455 157.632 16.1458 157.832 16.3466C158.033 16.5473 158.134 16.7879 158.134 17.0682C158.134 17.2538 158.086 17.4242 157.991 17.5795C157.901 17.7348 157.777 17.8598 157.622 17.9545C157.471 18.0455 157.3 18.0909 157.111 18.0909ZM164.085 18.1818C163.267 18.1818 162.563 17.9886 161.972 17.6023C161.381 17.2159 160.926 16.6837 160.608 16.0057C160.29 15.3277 160.131 14.553 160.131 13.6818C160.131 12.7955 160.294 12.0133 160.619 11.3352C160.949 10.6534 161.407 10.1212 161.994 9.73864C162.585 9.35227 163.275 9.15909 164.062 9.15909C164.676 9.15909 165.229 9.27273 165.722 9.5C166.214 9.72727 166.617 10.0455 166.932 10.4545C167.246 10.8636 167.441 11.3409 167.517 11.8864H166.176C166.074 11.4886 165.847 11.1364 165.494 10.8295C165.146 10.5189 164.676 10.3636 164.085 10.3636C163.563 10.3636 163.104 10.5 162.71 10.7727C162.32 11.0417 162.015 11.4223 161.795 11.9148C161.58 12.4034 161.472 12.9773 161.472 13.6364C161.472 14.3106 161.578 14.8977 161.79 15.3977C162.006 15.8977 162.309 16.286 162.699 16.5625C163.093 16.839 163.555 16.9773 164.085 16.9773C164.434 16.9773 164.75 16.9167 165.034 16.7955C165.318 16.6742 165.559 16.5 165.756 16.2727C165.953 16.0455 166.093 15.7727 166.176 15.4545H167.517C167.441 15.9697 167.254 16.4337 166.955 16.8466C166.659 17.2557 166.267 17.5814 165.778 17.8239C165.294 18.0625 164.729 18.1818 164.085 18.1818ZM173.023 18.1818C172.235 18.1818 171.544 17.9943 170.949 17.6193C170.358 17.2443 169.896 16.7197 169.562 16.0455C169.233 15.3712 169.068 14.5833 169.068 13.6818C169.068 12.7727 169.233 11.9792 169.562 11.3011C169.896 10.6231 170.358 10.0966 170.949 9.72159C171.544 9.34659 172.235 9.15909 173.023 9.15909C173.811 9.15909 174.5 9.34659 175.091 9.72159C175.686 10.0966 176.148 10.6231 176.477 11.3011C176.811 11.9792 176.977 12.7727 176.977 13.6818C176.977 14.5833 176.811 15.3712 176.477 16.0455C176.148 16.7197 175.686 17.2443 175.091 17.6193C174.5 17.9943 173.811 18.1818 173.023 18.1818ZM173.023 16.9773C173.621 16.9773 174.114 16.8239 174.5 16.517C174.886 16.2102 175.172 15.8068 175.358 15.3068C175.544 14.8068 175.636 14.2652 175.636 13.6818C175.636 13.0985 175.544 12.5549 175.358 12.0511C175.172 11.5473 174.886 11.1402 174.5 10.8295C174.114 10.5189 173.621 10.3636 173.023 10.3636C172.424 10.3636 171.932 10.5189 171.545 10.8295C171.159 11.1402 170.873 11.5473 170.688 12.0511C170.502 12.5549 170.409 13.0985 170.409 13.6818C170.409 14.2652 170.502 14.8068 170.688 15.3068C170.873 15.8068 171.159 16.2102 171.545 16.517C171.932 16.8239 172.424 16.9773 173.023 16.9773ZM179.024 18V9.27273H180.32V10.6364H180.433C180.615 10.1705 180.909 9.80871 181.314 9.55114C181.719 9.28977 182.206 9.15909 182.774 9.15909C183.35 9.15909 183.829 9.28977 184.212 9.55114C184.598 9.80871 184.899 10.1705 185.115 10.6364H185.206C185.429 10.1856 185.765 9.82765 186.212 9.5625C186.659 9.29356 187.195 9.15909 187.82 9.15909C188.6 9.15909 189.238 9.40341 189.734 9.89205C190.231 10.3769 190.479 11.1326 190.479 12.1591V18H189.138V12.1591C189.138 11.5152 188.962 11.0549 188.609 10.7784C188.257 10.5019 187.842 10.3636 187.365 10.3636C186.751 10.3636 186.276 10.5492 185.939 10.9205C185.602 11.2879 185.433 11.7538 185.433 12.3182V18H184.07V12.0227C184.07 11.5265 183.909 11.1269 183.587 10.8239C183.265 10.517 182.85 10.3636 182.342 10.3636C181.994 10.3636 181.668 10.4564 181.365 10.642C181.066 10.8277 180.823 11.0852 180.638 11.4148C180.456 11.7405 180.365 12.1174 180.365 12.5455V18H179.024Z" fill="#232020"/>
</svg>
