<svg width="192" height="24" viewBox="0 0 192 24" fill="none" xmlns="http://www.w3.org/2000/svg">
<path fill-rule="evenodd" clip-rule="evenodd" d="M4.35597 2.63884C5.28361 1.7112 6.81437 1.8065 7.61979 2.84204L9.86192 5.72478C10.2734 6.2538 10.4188 6.94261 10.2562 7.59278L9.57215 10.3291C9.49992 10.618 9.58457 10.9236 9.79513 11.1342L12.8659 14.2049C13.0764 14.4154 13.382 14.5001 13.6709 14.4279L16.4072 13.7438C17.0574 13.5812 17.7462 13.7266 18.2752 14.1381L21.158 16.3802C22.1935 17.1856 22.2888 18.7164 21.3612 19.644L20.0688 20.9364C19.1441 21.8611 17.7611 22.2671 16.4722 21.814C13.2719 20.6888 10.268 18.8468 7.71061 16.2894C5.15324 13.732 3.31119 10.7281 2.18605 7.52781C1.7329 6.2389 2.13891 4.8559 3.06356 3.93125L4.35597 2.63884Z" fill="black"/>
<path d="M36.6364 15.9545V8.45455H37.9091V15.9545H36.6364ZM33.5227 12.8409V11.5682H41.0227V12.8409H33.5227ZM43.7557 18L48.9602 7.70455V7.61364H42.9602V6.36364H50.4148V7.68182L45.233 18H43.7557ZM60.7599 18.1591C59.9796 18.1591 59.2902 18.0208 58.6918 17.7443C58.0971 17.464 57.633 17.0795 57.2997 16.5909C56.9664 16.0985 56.8016 15.5379 56.8054 14.9091C56.8016 14.4167 56.8982 13.9621 57.0952 13.5455C57.2921 13.125 57.5611 12.7746 57.902 12.4943C58.2467 12.2102 58.6312 12.0303 59.0554 11.9545V11.8864C58.4986 11.7424 58.0554 11.4299 57.7259 10.9489C57.3963 10.464 57.2334 9.91288 57.2372 9.29545C57.2334 8.70455 57.383 8.17614 57.6861 7.71023C57.9891 7.24432 58.4058 6.87689 58.9361 6.60795C59.4702 6.33901 60.0781 6.20455 60.7599 6.20455C61.4342 6.20455 62.0365 6.33901 62.5668 6.60795C63.0971 6.87689 63.5137 7.24432 63.8168 7.71023C64.1236 8.17614 64.2789 8.70455 64.2827 9.29545C64.2789 9.91288 64.1103 10.464 63.777 10.9489C63.4474 11.4299 63.0099 11.7424 62.4645 11.8864V11.9545C62.8849 12.0303 63.2637 12.2102 63.6009 12.4943C63.938 12.7746 64.2069 13.125 64.4077 13.5455C64.6084 13.9621 64.7107 14.4167 64.7145 14.9091C64.7107 15.5379 64.5402 16.0985 64.2031 16.5909C63.8698 17.0795 63.4058 17.464 62.8111 17.7443C62.2202 18.0208 61.5365 18.1591 60.7599 18.1591ZM60.7599 16.9091C61.2865 16.9091 61.741 16.8239 62.1236 16.6534C62.5062 16.483 62.8016 16.2424 63.0099 15.9318C63.2183 15.6212 63.3243 15.2576 63.3281 14.8409C63.3243 14.4015 63.2107 14.0133 62.9872 13.6761C62.7637 13.339 62.4588 13.0739 62.0724 12.8807C61.6899 12.6875 61.2524 12.5909 60.7599 12.5909C60.2637 12.5909 59.8205 12.6875 59.4304 12.8807C59.044 13.0739 58.7391 13.339 58.5156 13.6761C58.2959 14.0133 58.188 14.4015 58.1918 14.8409C58.188 15.2576 58.2884 15.6212 58.4929 15.9318C58.7012 16.2424 58.9986 16.483 59.3849 16.6534C59.7713 16.8239 60.2296 16.9091 60.7599 16.9091ZM60.7599 11.3864C61.1766 11.3864 61.5459 11.303 61.8679 11.1364C62.1937 10.9697 62.4493 10.7367 62.6349 10.4375C62.8205 10.1383 62.9152 9.78788 62.919 9.38636C62.9152 8.99242 62.8224 8.64962 62.6406 8.35795C62.4588 8.0625 62.2069 7.83523 61.8849 7.67614C61.563 7.51326 61.188 7.43182 60.7599 7.43182C60.3243 7.43182 59.9437 7.51326 59.6179 7.67614C59.2921 7.83523 59.0402 8.0625 58.8622 8.35795C58.6842 8.64962 58.5971 8.99242 58.6009 9.38636C58.5971 9.78788 58.6861 10.1383 58.8679 10.4375C59.0535 10.7367 59.3092 10.9697 59.6349 11.1364C59.9607 11.303 60.3357 11.3864 60.7599 11.3864ZM70.5284 18.1591C69.8617 18.1591 69.2614 18.0265 68.7273 17.7614C68.1932 17.4962 67.7652 17.1326 67.4432 16.6705C67.1212 16.2083 66.9451 15.6818 66.9148 15.0909H68.2784C68.3314 15.6174 68.5701 16.053 68.9943 16.3977C69.4223 16.7386 69.9337 16.9091 70.5284 16.9091C71.0057 16.9091 71.4299 16.7973 71.8011 16.5739C72.1761 16.3504 72.4697 16.0436 72.6818 15.6534C72.8977 15.2595 73.0057 14.8144 73.0057 14.3182C73.0057 13.8106 72.8939 13.358 72.6705 12.9602C72.4508 12.5587 72.1477 12.2424 71.7614 12.0114C71.375 11.7803 70.9337 11.6629 70.4375 11.6591C70.0814 11.6553 69.7159 11.7102 69.3409 11.8239C68.9659 11.9337 68.6572 12.0758 68.4148 12.25L67.0966 12.0909L67.8011 6.36364H73.8466V7.61364H68.983L68.5739 11.0455H68.642C68.8807 10.8561 69.1799 10.6989 69.5398 10.5739C69.8996 10.4489 70.2746 10.3864 70.6648 10.3864C71.3769 10.3864 72.0114 10.5568 72.5682 10.8977C73.1288 11.2348 73.5682 11.697 73.8864 12.2841C74.2083 12.8712 74.3693 13.5417 74.3693 14.2955C74.3693 15.0379 74.2027 15.7008 73.8693 16.2841C73.5398 16.8636 73.0852 17.322 72.5057 17.6591C71.9261 17.9924 71.267 18.1591 70.5284 18.1591ZM80.3537 18.1591C79.5734 18.1591 78.884 18.0208 78.2855 17.7443C77.6908 17.464 77.2268 17.0795 76.8935 16.5909C76.5601 16.0985 76.3954 15.5379 76.3991 14.9091C76.3954 14.4167 76.492 13.9621 76.6889 13.5455C76.8859 13.125 77.1548 12.7746 77.4957 12.4943C77.8404 12.2102 78.2249 12.0303 78.6491 11.9545V11.8864C78.0923 11.7424 77.6491 11.4299 77.3196 10.9489C76.9901 10.464 76.8272 9.91288 76.831 9.29545C76.8272 8.70455 76.9768 8.17614 77.2798 7.71023C77.5829 7.24432 77.9995 6.87689 78.5298 6.60795C79.0639 6.33901 79.6719 6.20455 80.3537 6.20455C81.0279 6.20455 81.6302 6.33901 82.1605 6.60795C82.6908 6.87689 83.1075 7.24432 83.4105 7.71023C83.7173 8.17614 83.8726 8.70455 83.8764 9.29545C83.8726 9.91288 83.7041 10.464 83.3707 10.9489C83.0412 11.4299 82.6037 11.7424 82.0582 11.8864V11.9545C82.4787 12.0303 82.8575 12.2102 83.1946 12.4943C83.5317 12.7746 83.8007 13.125 84.0014 13.5455C84.2022 13.9621 84.3045 14.4167 84.3082 14.9091C84.3045 15.5379 84.134 16.0985 83.7969 16.5909C83.4635 17.0795 82.9995 17.464 82.4048 17.7443C81.8139 18.0208 81.1302 18.1591 80.3537 18.1591ZM80.3537 16.9091C80.8802 16.9091 81.3348 16.8239 81.7173 16.6534C82.0999 16.483 82.3954 16.2424 82.6037 15.9318C82.812 15.6212 82.9181 15.2576 82.9219 14.8409C82.9181 14.4015 82.8045 14.0133 82.581 13.6761C82.3575 13.339 82.0526 13.0739 81.6662 12.8807C81.2836 12.6875 80.8461 12.5909 80.3537 12.5909C79.8575 12.5909 79.4143 12.6875 79.0241 12.8807C78.6378 13.0739 78.3329 13.339 78.1094 13.6761C77.8897 14.0133 77.7817 14.4015 77.7855 14.8409C77.7817 15.2576 77.8821 15.6212 78.0866 15.9318C78.295 16.2424 78.5923 16.483 78.9787 16.6534C79.3651 16.8239 79.8234 16.9091 80.3537 16.9091ZM80.3537 11.3864C80.7704 11.3864 81.1397 11.303 81.4616 11.1364C81.7874 10.9697 82.0431 10.7367 82.2287 10.4375C82.4143 10.1383 82.509 9.78788 82.5128 9.38636C82.509 8.99242 82.4162 8.64962 82.2344 8.35795C82.0526 8.0625 81.8007 7.83523 81.4787 7.67614C81.1567 7.51326 80.7817 7.43182 80.3537 7.43182C79.9181 7.43182 79.5374 7.51326 79.2116 7.67614C78.8859 7.83523 78.634 8.0625 78.456 8.35795C78.2779 8.64962 78.1908 8.99242 78.1946 9.38636C78.1908 9.78788 78.2798 10.1383 78.4616 10.4375C78.6473 10.7367 78.9029 10.9697 79.2287 11.1364C79.5545 11.303 79.9295 11.3864 80.3537 11.3864ZM94.7131 18.1591C93.9328 18.1591 93.2434 18.0208 92.6449 17.7443C92.0502 17.464 91.5862 17.0795 91.2528 16.5909C90.9195 16.0985 90.7547 15.5379 90.7585 14.9091C90.7547 14.4167 90.8513 13.9621 91.0483 13.5455C91.2453 13.125 91.5142 12.7746 91.8551 12.4943C92.1998 12.2102 92.5843 12.0303 93.0085 11.9545V11.8864C92.4517 11.7424 92.0085 11.4299 91.679 10.9489C91.3494 10.464 91.1866 9.91288 91.1903 9.29545C91.1866 8.70455 91.3362 8.17614 91.6392 7.71023C91.9422 7.24432 92.3589 6.87689 92.8892 6.60795C93.4233 6.33901 94.0313 6.20455 94.7131 6.20455C95.3873 6.20455 95.9896 6.33901 96.5199 6.60795C97.0502 6.87689 97.4669 7.24432 97.7699 7.71023C98.0767 8.17614 98.232 8.70455 98.2358 9.29545C98.232 9.91288 98.0634 10.464 97.7301 10.9489C97.4006 11.4299 96.9631 11.7424 96.4176 11.8864V11.9545C96.8381 12.0303 97.2169 12.2102 97.554 12.4943C97.8911 12.7746 98.16 13.125 98.3608 13.5455C98.5616 13.9621 98.6638 14.4167 98.6676 14.9091C98.6638 15.5379 98.4934 16.0985 98.1562 16.5909C97.8229 17.0795 97.3589 17.464 96.7642 17.7443C96.1733 18.0208 95.4896 18.1591 94.7131 18.1591ZM94.7131 16.9091C95.2396 16.9091 95.6941 16.8239 96.0767 16.6534C96.4593 16.483 96.7547 16.2424 96.9631 15.9318C97.1714 15.6212 97.2775 15.2576 97.2812 14.8409C97.2775 14.4015 97.1638 14.0133 96.9403 13.6761C96.7169 13.339 96.4119 13.0739 96.0256 12.8807C95.643 12.6875 95.2055 12.5909 94.7131 12.5909C94.2169 12.5909 93.7737 12.6875 93.3835 12.8807C92.9972 13.0739 92.6922 13.339 92.4688 13.6761C92.2491 14.0133 92.1411 14.4015 92.1449 14.8409C92.1411 15.2576 92.2415 15.6212 92.446 15.9318C92.6544 16.2424 92.9517 16.483 93.3381 16.6534C93.7244 16.8239 94.1828 16.9091 94.7131 16.9091ZM94.7131 11.3864C95.1297 11.3864 95.4991 11.303 95.821 11.1364C96.1468 10.9697 96.4025 10.7367 96.5881 10.4375C96.7737 10.1383 96.8684 9.78788 96.8722 9.38636C96.8684 8.99242 96.7756 8.64962 96.5938 8.35795C96.4119 8.0625 96.16 7.83523 95.8381 7.67614C95.5161 7.51326 95.1411 7.43182 94.7131 7.43182C94.2775 7.43182 93.8968 7.51326 93.571 7.67614C93.2453 7.83523 92.9934 8.0625 92.8153 8.35795C92.6373 8.64962 92.5502 8.99242 92.554 9.38636C92.5502 9.78788 92.6392 10.1383 92.821 10.4375C93.0066 10.7367 93.2623 10.9697 93.5881 11.1364C93.9138 11.303 94.2888 11.3864 94.7131 11.3864ZM100.572 15.6136V14.4545L105.686 6.36364H106.527V8.15909H105.959L102.095 14.2727V14.3636H108.982V15.6136H100.572ZM106.05 18V15.2614V14.7216V6.36364H107.391V18H106.05ZM114.815 6.20455C115.293 6.20833 115.77 6.29924 116.247 6.47727C116.724 6.6553 117.16 6.95076 117.554 7.36364C117.948 7.77273 118.264 8.33144 118.503 9.03977C118.741 9.74811 118.861 10.6364 118.861 11.7045C118.861 12.7386 118.762 13.6572 118.565 14.4602C118.372 15.2595 118.092 15.9337 117.724 16.483C117.361 17.0322 116.918 17.4489 116.395 17.733C115.876 18.017 115.289 18.1591 114.634 18.1591C113.982 18.1591 113.401 18.0303 112.889 17.7727C112.382 17.5114 111.965 17.1496 111.639 16.6875C111.317 16.2216 111.111 15.6818 111.02 15.0682H112.406C112.531 15.6023 112.779 16.0436 113.151 16.392C113.526 16.7367 114.02 16.9091 114.634 16.9091C115.531 16.9091 116.24 16.517 116.759 15.733C117.281 14.9489 117.543 13.8409 117.543 12.4091H117.452C117.24 12.7273 116.988 13.0019 116.696 13.233C116.404 13.464 116.08 13.642 115.724 13.767C115.368 13.892 114.99 13.9545 114.588 13.9545C113.921 13.9545 113.31 13.7898 112.753 13.4602C112.2 13.1269 111.757 12.6705 111.423 12.0909C111.094 11.5076 110.929 10.8409 110.929 10.0909C110.929 9.37879 111.088 8.72727 111.406 8.13636C111.728 7.54167 112.179 7.06818 112.759 6.71591C113.342 6.36364 114.027 6.19318 114.815 6.20455ZM114.815 7.45455C114.338 7.45455 113.908 7.57386 113.526 7.8125C113.147 8.04735 112.846 8.36553 112.622 8.76705C112.402 9.16477 112.293 9.60606 112.293 10.0909C112.293 10.5758 112.399 11.017 112.611 11.4148C112.827 11.8087 113.12 12.1231 113.491 12.358C113.866 12.589 114.293 12.7045 114.77 12.7045C115.13 12.7045 115.465 12.6345 115.776 12.4943C116.086 12.3504 116.357 12.1553 116.588 11.9091C116.823 11.6591 117.007 11.3769 117.139 11.0625C117.272 10.7443 117.338 10.4129 117.338 10.0682C117.338 9.61364 117.228 9.1875 117.009 8.78977C116.793 8.39205 116.493 8.07008 116.111 7.82386C115.732 7.57765 115.3 7.45455 114.815 7.45455ZM125.959 18L131.163 7.70455V7.61364H125.163V6.36364H132.618V7.68182L127.436 18H125.959ZM138.402 18.1591C137.652 18.1591 136.983 18.0303 136.396 17.7727C135.813 17.5152 135.349 17.1572 135.004 16.6989C134.663 16.2367 134.478 15.7008 134.447 15.0909H135.879C135.91 15.4659 136.038 15.7898 136.266 16.0625C136.493 16.3314 136.79 16.5398 137.158 16.6875C137.525 16.8352 137.932 16.9091 138.379 16.9091C138.879 16.9091 139.322 16.822 139.709 16.6477C140.095 16.4735 140.398 16.2311 140.618 15.9205C140.838 15.6098 140.947 15.25 140.947 14.8409C140.947 14.4129 140.841 14.036 140.629 13.7102C140.417 13.3807 140.107 13.1231 139.697 12.9375C139.288 12.7519 138.788 12.6591 138.197 12.6591H137.266V11.4091H138.197C138.66 11.4091 139.065 11.3258 139.413 11.1591C139.766 10.9924 140.04 10.7576 140.237 10.4545C140.438 10.1515 140.538 9.79545 140.538 9.38636C140.538 8.99242 140.451 8.64962 140.277 8.35795C140.103 8.06629 139.857 7.83901 139.538 7.67614C139.224 7.51326 138.853 7.43182 138.425 7.43182C138.023 7.43182 137.644 7.50568 137.288 7.65341C136.936 7.79735 136.648 8.00758 136.425 8.28409C136.201 8.55682 136.08 8.88636 136.061 9.27273H134.697C134.72 8.66288 134.904 8.12879 135.249 7.67045C135.593 7.20833 136.044 6.84848 136.601 6.59091C137.161 6.33333 137.777 6.20455 138.447 6.20455C139.167 6.20455 139.785 6.35038 140.3 6.64205C140.815 6.92992 141.211 7.31061 141.487 7.78409C141.764 8.25758 141.902 8.76894 141.902 9.31818C141.902 9.97348 141.73 10.5322 141.385 10.9943C141.044 11.4564 140.58 11.7765 139.993 11.9545V12.0455C140.728 12.1667 141.302 12.4792 141.714 12.983C142.127 13.483 142.334 14.1023 142.334 14.8409C142.334 15.4735 142.161 16.0417 141.817 16.5455C141.476 17.0455 141.01 17.4394 140.419 17.7273C139.828 18.0152 139.156 18.1591 138.402 18.1591ZM152.885 18.1591C152.105 18.1591 151.415 18.0208 150.817 17.7443C150.222 17.464 149.758 17.0795 149.425 16.5909C149.091 16.0985 148.927 15.5379 148.93 14.9091C148.927 14.4167 149.023 13.9621 149.22 13.5455C149.417 13.125 149.686 12.7746 150.027 12.4943C150.372 12.2102 150.756 12.0303 151.18 11.9545V11.8864C150.624 11.7424 150.18 11.4299 149.851 10.9489C149.521 10.464 149.358 9.91288 149.362 9.29545C149.358 8.70455 149.508 8.17614 149.811 7.71023C150.114 7.24432 150.531 6.87689 151.061 6.60795C151.595 6.33901 152.203 6.20455 152.885 6.20455C153.559 6.20455 154.161 6.33901 154.692 6.60795C155.222 6.87689 155.639 7.24432 155.942 7.71023C156.249 8.17614 156.404 8.70455 156.408 9.29545C156.404 9.91288 156.235 10.464 155.902 10.9489C155.572 11.4299 155.135 11.7424 154.589 11.8864V11.9545C155.01 12.0303 155.389 12.2102 155.726 12.4943C156.063 12.7746 156.332 13.125 156.533 13.5455C156.733 13.9621 156.836 14.4167 156.839 14.9091C156.836 15.5379 156.665 16.0985 156.328 16.5909C155.995 17.0795 155.531 17.464 154.936 17.7443C154.345 18.0208 153.661 18.1591 152.885 18.1591ZM152.885 16.9091C153.411 16.9091 153.866 16.8239 154.249 16.6534C154.631 16.483 154.927 16.2424 155.135 15.9318C155.343 15.6212 155.449 15.2576 155.453 14.8409C155.449 14.4015 155.336 14.0133 155.112 13.6761C154.889 13.339 154.584 13.0739 154.197 12.8807C153.815 12.6875 153.377 12.5909 152.885 12.5909C152.389 12.5909 151.946 12.6875 151.555 12.8807C151.169 13.0739 150.864 13.339 150.641 13.6761C150.421 14.0133 150.313 14.4015 150.317 14.8409C150.313 15.2576 150.413 15.6212 150.618 15.9318C150.826 16.2424 151.124 16.483 151.51 16.6534C151.896 16.8239 152.355 16.9091 152.885 16.9091ZM152.885 11.3864C153.302 11.3864 153.671 11.303 153.993 11.1364C154.319 10.9697 154.574 10.7367 154.76 10.4375C154.946 10.1383 155.04 9.78788 155.044 9.38636C155.04 8.99242 154.947 8.64962 154.766 8.35795C154.584 8.0625 154.332 7.83523 154.01 7.67614C153.688 7.51326 153.313 7.43182 152.885 7.43182C152.449 7.43182 152.069 7.51326 151.743 7.67614C151.417 7.83523 151.165 8.0625 150.987 8.35795C150.809 8.64962 150.722 8.99242 150.726 9.38636C150.722 9.78788 150.811 10.1383 150.993 10.4375C151.179 10.7367 151.434 10.9697 151.76 11.1364C152.086 11.303 152.461 11.3864 152.885 11.3864ZM162.812 18.1591C161.956 18.1591 161.227 17.9261 160.625 17.4602C160.023 16.9905 159.563 16.3106 159.244 15.4205C158.926 14.5265 158.767 13.447 158.767 12.1818C158.767 10.9242 158.926 9.85038 159.244 8.96023C159.566 8.06629 160.028 7.38447 160.631 6.91477C161.237 6.44129 161.964 6.20455 162.812 6.20455C163.661 6.20455 164.386 6.44129 164.989 6.91477C165.595 7.38447 166.057 8.06629 166.375 8.96023C166.697 9.85038 166.858 10.9242 166.858 12.1818C166.858 13.447 166.699 14.5265 166.381 15.4205C166.062 16.3106 165.602 16.9905 165 17.4602C164.398 17.9261 163.669 18.1591 162.812 18.1591ZM162.812 16.9091C163.661 16.9091 164.32 16.5 164.79 15.6818C165.259 14.8636 165.494 13.697 165.494 12.1818C165.494 11.1742 165.386 10.3163 165.17 9.60795C164.958 8.89962 164.652 8.35985 164.25 7.98864C163.852 7.61742 163.373 7.43182 162.812 7.43182C161.972 7.43182 161.314 7.84659 160.841 8.67614C160.367 9.50189 160.131 10.6705 160.131 12.1818C160.131 13.1894 160.237 14.0455 160.449 14.75C160.661 15.4545 160.966 15.9905 161.364 16.358C161.765 16.7254 162.248 16.9091 162.812 16.9091Z" fill="#232020"/>
</svg>
