<svg width="157" height="15" viewBox="0 0 157 15" fill="none" xmlns="http://www.w3.org/2000/svg">
<path d="M3 6.18182C3 5.56061 3.15152 4.99432 3.45455 4.48295C3.75758 3.97159 4.16477 3.56439 4.67614 3.26136C5.1875 2.95833 5.75379 2.80682 6.375 2.80682C6.91288 2.80682 7.40909 2.92235 7.86364 3.15341C8.32197 3.38447 8.70076 3.70076 9 4.10227C9.29924 4.5 9.48485 4.95076 9.55682 5.45455H8.18182C8.10606 5.06439 7.89583 4.74621 7.55114 4.5C7.20644 4.25 6.81439 4.125 6.375 4.125C5.99621 4.125 5.65152 4.2178 5.34091 4.40341C5.0303 4.58902 4.7822 4.83712 4.59659 5.14773C4.41098 5.45833 4.31818 5.80303 4.31818 6.18182C4.31818 6.56061 4.41098 6.9053 4.59659 7.21591C4.7822 7.52652 5.0303 7.77462 5.34091 7.96023C5.65152 8.14583 5.99621 8.23864 6.375 8.23864C6.81439 8.23864 7.18561 8.11553 7.48864 7.86932C7.79545 7.61932 7.98864 7.29924 8.06818 6.90909H9.44318C9.37121 7.41288 9.19508 7.86553 8.91477 8.26705C8.63447 8.66477 8.27462 8.97917 7.83523 9.21023C7.39962 9.44129 6.91288 9.55682 6.375 9.55682C5.75379 9.55682 5.1875 9.4053 4.67614 9.10227C4.16477 8.79924 3.75758 8.39205 3.45455 7.88068C3.15152 7.36932 3 6.80303 3 6.18182ZM6.31818 12.1818C5.49242 12.1818 4.71591 12.0265 3.98864 11.7159C3.26515 11.4053 2.62689 10.9754 2.07386 10.4261C1.52462 9.87311 1.0928 9.23485 0.778409 8.51136C0.467803 7.78788 0.314394 7.01136 0.318182 6.18182C0.32197 5.35227 0.479167 4.57576 0.789773 3.85227C1.10417 3.12879 1.53598 2.49242 2.08523 1.94318C2.63447 1.39015 3.27083 0.958333 3.99432 0.647727C4.7178 0.337121 5.49242 0.181818 6.31818 0.181818C7.14773 0.181818 7.92424 0.337121 8.64773 0.647727C9.375 0.958333 10.0114 1.39015 10.5568 1.94318C11.1061 2.49242 11.536 3.12879 11.8466 3.85227C12.1572 4.57576 12.3144 5.35227 12.3182 6.18182C12.322 7.01136 12.1686 7.78788 11.858 8.51136C11.5473 9.23485 11.1174 9.87311 10.5682 10.4261C10.0189 10.9754 9.38068 11.4053 8.65341 11.7159C7.92614 12.0265 7.14773 12.1818 6.31818 12.1818ZM6.31818 10.8636C6.96591 10.8636 7.57386 10.7424 8.14205 10.5C8.71023 10.2576 9.20833 9.92235 9.63636 9.49432C10.0644 9.06629 10.3996 8.57008 10.642 8.00568C10.8845 7.4375 11.0038 6.83144 11 6.1875C10.9962 5.53977 10.8731 4.93182 10.6307 4.36364C10.3883 3.79545 10.053 3.29735 9.625 2.86932C9.19697 2.44129 8.70076 2.10606 8.13636 1.86364C7.57197 1.62121 6.96591 1.5 6.31818 1.5C5.67424 1.5 5.07008 1.62121 4.50568 1.86364C3.94129 2.10606 3.44508 2.44318 3.01705 2.875C2.58902 3.30303 2.25189 3.80114 2.00568 4.36932C1.76326 4.93371 1.64015 5.53977 1.63636 6.1875C1.63258 6.82765 1.75189 7.43182 1.99432 8C2.23674 8.56439 2.57197 9.06061 3 9.48864C3.43182 9.91667 3.92992 10.2538 4.49432 10.5C5.0625 10.7424 5.67045 10.8636 6.31818 10.8636ZM18.9134 1.61364V0.363636H27.6406V1.61364H23.9815V12H22.5724V1.61364H18.9134ZM32.027 12.1818C31.1861 12.1818 30.4607 11.9962 29.8509 11.625C29.2448 11.25 28.777 10.7273 28.4474 10.0568C28.1217 9.38258 27.9588 8.59848 27.9588 7.70455C27.9588 6.81061 28.1217 6.02273 28.4474 5.34091C28.777 4.6553 29.2353 4.12121 29.8224 3.73864C30.4134 3.35227 31.1027 3.15909 31.8906 3.15909C32.3452 3.15909 32.794 3.23485 33.2372 3.38636C33.6804 3.53788 34.0838 3.78409 34.4474 4.125C34.8111 4.46212 35.1009 4.90909 35.3168 5.46591C35.5327 6.02273 35.6406 6.70833 35.6406 7.52273V8.09091H28.9134V6.93182H34.277C34.277 6.43939 34.1785 6 33.9815 5.61364C33.7884 5.22727 33.5118 4.92235 33.152 4.69886C32.7959 4.47538 32.3755 4.36364 31.8906 4.36364C31.3565 4.36364 30.8944 4.49621 30.5043 4.76136C30.1179 5.02273 29.8205 5.36364 29.6122 5.78409C29.4039 6.20455 29.2997 6.6553 29.2997 7.13636V7.90909C29.2997 8.56818 29.4134 9.12689 29.6406 9.58523C29.8717 10.0398 30.1918 10.3864 30.6009 10.625C31.0099 10.8598 31.4853 10.9773 32.027 10.9773C32.3793 10.9773 32.6974 10.928 32.9815 10.8295C33.2694 10.7273 33.5175 10.5758 33.7259 10.375C33.9342 10.1705 34.0952 9.91667 34.2088 9.61364L35.5043 9.97727C35.3679 10.4167 35.1387 10.803 34.8168 11.1364C34.4948 11.4659 34.0971 11.7235 33.6236 11.9091C33.1501 12.0909 32.6179 12.1818 32.027 12.1818ZM37.6804 12V3.27273H44.544V12H43.2031V4.52273H39.0213V12H37.6804ZM46.2202 12V10.75H46.5384C46.7997 10.75 47.0175 10.6989 47.1918 10.5966C47.366 10.4905 47.5062 10.3068 47.6122 10.0455C47.7221 9.7803 47.8054 9.41288 47.8622 8.94318C47.9228 8.4697 47.9664 7.86742 47.9929 7.13636L48.152 3.27273H53.9702V12H52.6293V4.52273H49.4247L49.2884 7.63636C49.258 8.35227 49.1937 8.98295 49.0952 9.52841C49.0005 10.0701 48.8546 10.5246 48.6577 10.892C48.4645 11.2595 48.2069 11.536 47.8849 11.7216C47.563 11.9072 47.1596 12 46.6747 12H46.2202ZM57.5895 6.43182H60.0895C61.1122 6.43182 61.8944 6.69129 62.4361 7.21023C62.9777 7.72917 63.2486 8.38636 63.2486 9.18182C63.2486 9.70455 63.1274 10.1799 62.8849 10.608C62.6425 11.0322 62.2865 11.3712 61.8168 11.625C61.3471 11.875 60.7713 12 60.0895 12H56.4304V3.27273H57.7713V10.75H60.0895C60.6198 10.75 61.0554 10.6098 61.3963 10.3295C61.7372 10.0492 61.9077 9.68939 61.9077 9.25C61.9077 8.78788 61.7372 8.41098 61.3963 8.11932C61.0554 7.82765 60.6198 7.68182 60.0895 7.68182H57.5895V6.43182ZM64.6349 12V3.27273H65.9759V12H64.6349ZM69.7713 10.0227L73.9759 3.27273H75.5213V12H74.1804V5.25L69.9986 12H68.4304V3.27273H69.7713V10.0227ZM73.0895 0.363636H74.3395C74.3395 0.977273 74.1274 1.47917 73.7031 1.86932C73.2789 2.25947 72.7031 2.45455 71.9759 2.45455C71.2599 2.45455 70.6899 2.25947 70.2656 1.86932C69.8452 1.47917 69.6349 0.977273 69.6349 0.363636H70.8849C70.8849 0.659091 70.9664 0.91856 71.1293 1.14205C71.2959 1.36553 71.5781 1.47727 71.9759 1.47727C72.3736 1.47727 72.6577 1.36553 72.8281 1.14205C73.0024 0.91856 73.0895 0.659091 73.0895 0.363636ZM82.4773 12V3.27273H89.3409V12H88V4.52273H83.8182V12H82.4773ZM95.3352 12.1818C94.5473 12.1818 93.8561 11.9943 93.2614 11.6193C92.6705 11.2443 92.2083 10.7197 91.875 10.0455C91.5455 9.37121 91.3807 8.58333 91.3807 7.68182C91.3807 6.77273 91.5455 5.97917 91.875 5.30114C92.2083 4.62311 92.6705 4.09659 93.2614 3.72159C93.8561 3.34659 94.5473 3.15909 95.3352 3.15909C96.1231 3.15909 96.8125 3.34659 97.4034 3.72159C97.9981 4.09659 98.4602 4.62311 98.7898 5.30114C99.1231 5.97917 99.2898 6.77273 99.2898 7.68182C99.2898 8.58333 99.1231 9.37121 98.7898 10.0455C98.4602 10.7197 97.9981 11.2443 97.4034 11.6193C96.8125 11.9943 96.1231 12.1818 95.3352 12.1818ZM95.3352 10.9773C95.9337 10.9773 96.4261 10.8239 96.8125 10.517C97.1989 10.2102 97.4848 9.80682 97.6705 9.30682C97.8561 8.80682 97.9489 8.26515 97.9489 7.68182C97.9489 7.09848 97.8561 6.55492 97.6705 6.05114C97.4848 5.54735 97.1989 5.14015 96.8125 4.82955C96.4261 4.51894 95.9337 4.36364 95.3352 4.36364C94.7367 4.36364 94.2443 4.51894 93.858 4.82955C93.4716 5.14015 93.1856 5.54735 93 6.05114C92.8144 6.55492 92.7216 7.09848 92.7216 7.68182C92.7216 8.26515 92.8144 8.80682 93 9.30682C93.1856 9.80682 93.4716 10.2102 93.858 10.517C94.2443 10.8239 94.7367 10.9773 95.3352 10.9773ZM100.564 12V10.75H100.882C101.143 10.75 101.361 10.6989 101.536 10.5966C101.71 10.4905 101.85 10.3068 101.956 10.0455C102.066 9.7803 102.149 9.41288 102.206 8.94318C102.267 8.4697 102.31 7.86742 102.337 7.13636L102.496 3.27273H108.314V12H106.973V4.52273H103.768L103.632 7.63636C103.602 8.35227 103.537 8.98295 103.439 9.52841C103.344 10.0701 103.198 10.5246 103.001 10.892C102.808 11.2595 102.551 11.536 102.229 11.7216C101.907 11.9072 101.503 12 101.018 12H100.564ZM112.774 10.4091L112.683 11.0227C112.619 11.4545 112.52 11.9167 112.388 12.4091C112.259 12.9015 112.125 13.3655 111.984 13.8011C111.844 14.2367 111.729 14.5833 111.638 14.8409H110.615C110.664 14.5985 110.729 14.2784 110.808 13.8807C110.888 13.483 110.967 13.0379 111.047 12.5455C111.13 12.0568 111.198 11.5568 111.251 11.0455L111.32 10.4091H112.774ZM119.736 12V10.9773L123.577 6.77273C124.027 6.2803 124.399 5.85227 124.69 5.48864C124.982 5.12121 125.198 4.77652 125.338 4.45455C125.482 4.12879 125.554 3.78788 125.554 3.43182C125.554 3.02273 125.455 2.66856 125.259 2.36932C125.065 2.07008 124.8 1.83901 124.463 1.67614C124.126 1.51326 123.747 1.43182 123.327 1.43182C122.88 1.43182 122.49 1.52462 122.156 1.71023C121.827 1.89205 121.571 2.14773 121.389 2.47727C121.211 2.80682 121.122 3.19318 121.122 3.63636H119.781C119.781 2.95455 119.938 2.35606 120.253 1.84091C120.567 1.32576 120.995 0.924242 121.537 0.636363C122.082 0.348484 122.694 0.204545 123.372 0.204545C124.054 0.204545 124.658 0.348484 125.185 0.636363C125.711 0.924242 126.124 1.3125 126.423 1.80114C126.723 2.28977 126.872 2.83333 126.872 3.43182C126.872 3.85985 126.795 4.27841 126.639 4.6875C126.488 5.0928 126.223 5.54545 125.844 6.04545C125.469 6.54167 124.948 7.14773 124.281 7.86364L121.668 10.6591V10.75H127.077V12H119.736ZM133.219 12.1591C132.363 12.1591 131.634 11.9261 131.031 11.4602C130.429 10.9905 129.969 10.3106 129.651 9.42045C129.332 8.52652 129.173 7.44697 129.173 6.18182C129.173 4.92424 129.332 3.85038 129.651 2.96023C129.973 2.06629 130.435 1.38447 131.037 0.914772C131.643 0.441287 132.37 0.204545 133.219 0.204545C134.067 0.204545 134.793 0.441287 135.395 0.914772C136.001 1.38447 136.463 2.06629 136.781 2.96023C137.103 3.85038 137.264 4.92424 137.264 6.18182C137.264 7.44697 137.105 8.52652 136.787 9.42045C136.469 10.3106 136.009 10.9905 135.406 11.4602C134.804 11.9261 134.075 12.1591 133.219 12.1591ZM133.219 10.9091C134.067 10.9091 134.726 10.5 135.196 9.68182C135.666 8.86364 135.901 7.69697 135.901 6.18182C135.901 5.17424 135.793 4.31629 135.577 3.60795C135.365 2.89962 135.058 2.35985 134.656 1.98864C134.259 1.61742 133.779 1.43182 133.219 1.43182C132.378 1.43182 131.721 1.84659 131.247 2.67614C130.774 3.50189 130.537 4.67045 130.537 6.18182C130.537 7.18939 130.643 8.04545 130.855 8.75C131.067 9.45455 131.372 9.99053 131.77 10.358C132.171 10.7254 132.654 10.9091 133.219 10.9091ZM139.423 12V10.9773L143.264 6.77273C143.715 6.2803 144.086 5.85227 144.378 5.48864C144.67 5.12121 144.885 4.77652 145.026 4.45455C145.17 4.12879 145.241 3.78788 145.241 3.43182C145.241 3.02273 145.143 2.66856 144.946 2.36932C144.753 2.07008 144.488 1.83901 144.151 1.67614C143.813 1.51326 143.435 1.43182 143.014 1.43182C142.567 1.43182 142.177 1.52462 141.844 1.71023C141.514 1.89205 141.259 2.14773 141.077 2.47727C140.899 2.80682 140.81 3.19318 140.81 3.63636H139.469C139.469 2.95455 139.626 2.35606 139.94 1.84091C140.255 1.32576 140.683 0.924242 141.224 0.636363C141.77 0.348484 142.382 0.204545 143.06 0.204545C143.741 0.204545 144.346 0.348484 144.872 0.636363C145.399 0.924242 145.812 1.3125 146.111 1.80114C146.41 2.28977 146.56 2.83333 146.56 3.43182C146.56 3.85985 146.482 4.27841 146.327 4.6875C146.175 5.0928 145.91 5.54545 145.531 6.04545C145.156 6.54167 144.635 7.14773 143.969 7.86364L141.355 10.6591V10.75H146.764V12H139.423ZM153.043 12.1591C152.293 12.1591 151.624 12.0303 151.037 11.7727C150.454 11.5152 149.99 11.1572 149.645 10.6989C149.304 10.2367 149.118 9.70076 149.088 9.09091H150.52C150.55 9.46591 150.679 9.78977 150.906 10.0625C151.134 10.3314 151.431 10.5398 151.798 10.6875C152.166 10.8352 152.573 10.9091 153.02 10.9091C153.52 10.9091 153.963 10.822 154.349 10.6477C154.736 10.4735 155.039 10.2311 155.259 9.92045C155.478 9.60985 155.588 9.25 155.588 8.84091C155.588 8.41288 155.482 8.03598 155.27 7.71023C155.058 7.38068 154.747 7.12311 154.338 6.9375C153.929 6.75189 153.429 6.65909 152.838 6.65909H151.906V5.40909H152.838C153.3 5.40909 153.705 5.32576 154.054 5.15909C154.406 4.99242 154.681 4.75758 154.878 4.45455C155.079 4.15152 155.179 3.79545 155.179 3.38636C155.179 2.99242 155.092 2.64962 154.918 2.35795C154.743 2.06629 154.497 1.83901 154.179 1.67614C153.865 1.51326 153.493 1.43182 153.065 1.43182C152.664 1.43182 152.285 1.50568 151.929 1.65341C151.577 1.79735 151.289 2.00758 151.065 2.28409C150.842 2.55682 150.721 2.88636 150.702 3.27273H149.338C149.361 2.66288 149.545 2.12879 149.889 1.67045C150.234 1.20833 150.685 0.848484 151.241 0.590909C151.802 0.333333 152.418 0.204545 153.088 0.204545C153.808 0.204545 154.425 0.350378 154.94 0.642045C155.455 0.929924 155.851 1.31061 156.128 1.78409C156.404 2.25758 156.543 2.76894 156.543 3.31818C156.543 3.97348 156.37 4.5322 156.026 4.99432C155.685 5.45644 155.221 5.77652 154.634 5.95455V6.04545C155.368 6.16667 155.942 6.47917 156.355 6.98295C156.768 7.48295 156.974 8.10227 156.974 8.84091C156.974 9.47348 156.802 10.0417 156.457 10.5455C156.116 11.0455 155.651 11.4394 155.06 11.7273C154.469 12.0152 153.796 12.1591 153.043 12.1591Z" fill="#232020"/>
</svg>
